<svg xmlns="http://www.w3.org/2000/svg" xmlns:xlink="http://www.w3.org/1999/xlink" width="49" height="48" viewBox="0 0 49 48">
    <defs>
        <circle id="a" cx="24" cy="24" r="24"/>
        <path id="c" d="M32.687 12.845l14.75 16.335c-1.093 4.81-3.41 8.897-6.948 12.262-3.538 3.364-7.75 5.448-12.634 6.25L14.3 34.15l18.387-21.304z"/>
        <linearGradient id="e" x1="7.266%" x2="97.551%" y1="78.992%" y2="78.992%">
            <stop offset="0%" stop-color="#571800"/>
            <stop offset="100%" stop-color="#2C0A00"/>
        </linearGradient>
    </defs>
    <g fill="none" fill-rule="evenodd" transform="translate(.5)">
        <mask id="b" fill="#fff">
            <use xlink:href="#a"/>
        </mask>
        <use fill="#9FB3BB" xlink:href="#a"/>
        <g fill="#00D8D5" mask="url(#b)">
            <path d="M0 0h48v48H0z"/>
        </g>
        <mask id="d" fill="#fff">
            <use xlink:href="#c"/>
        </mask>
        <use fill="#FFA886" xlink:href="#c"/>
        <g fill="#00C5C3" mask="url(#d)">
            <path d="M0 0h48v48H0z"/>
        </g>
        <circle cx="24" cy="24" r="14.1" fill="#FFB194"/>
        <circle cx="18.7" cy="25.2" r="1.3" fill="#2C0A00"/>
        <circle cx="29.1" cy="25.2" r="1.3" fill="#2C0A00"/>
        <path fill="#FFF" d="M23.985 32.062c1.883 0 3.461-1.37 3.584-3.185.01-.157-.043-.477-.359-.477h-6.45c-.309.013-.37.32-.359.477.12 1.814 1.701 3.185 3.584 3.185z"/>
        <path fill="url(#e)" d="M32.63 17.1c.816.476 1.521.803 2.116.981 1.344.402 2.245.43 2.245.43C34.851 13.45 29.84 9.9 24 9.9c-2.943 0-5.676.902-7.936 2.444-.346.235-1.601 1.06-3.115.606-1.312-.394-2.422-1.41-3.33-3.05-.018 1.796.16 3.194.537 4.193.846 2.25 1.87 2.419 1.646 2.798-.315.53-.535 1.013-.779 1.585 0 .016 5.487 1.062 13.084.534 2.295-.16 5.136-.796 8.523-1.91z"/>
    </g>
</svg>
