<svg width="102" height="18" viewBox="0 0 102 18" fill="none" xmlns="http://www.w3.org/2000/svg">
<g clip-path="url(#clip0_1315_7081)">
<path d="M17.8898 0H0V18H17.8898V0Z" fill="black"/>
<path d="M10.833 4H13.9142V12.1667L11.9542 14H5.93819L3.97546 12.164V4H7.0567V11.1777L7.47747 11.6012H10.4122L10.833 11.1777V4Z" fill="white"/>
<path d="M36.2765 18V0H18.3867V18H36.2765Z" fill="black"/>
<path d="M25.7907 13.9973V6.39678H22.3623V4H32.3011V6.39678H28.8727V14H25.7933L25.7907 13.9973Z" fill="white"/>
<path d="M54.6634 0H36.7736V18H54.6634V0Z" fill="black"/>
<path d="M43.8319 11.2635V14H40.749V4H48.8679L50.6878 5.69124V9.56955L48.8679 11.2608H43.8319V11.2635ZM47.1866 6.40686H43.8292V8.87537H47.1866L47.6076 8.45189V6.83034L47.1866 6.40686Z" fill="white"/>
<path d="M67.4386 7.69043H57.2639V10.4058H67.4386V7.69043Z" fill="#FF395C"/>
<path d="M63.8222 3.76343H61.1227V14.2364H63.8222V3.76343Z" fill="#FF395C"/>
<path d="M68.1049 3.57855V0.919434H71.1029V3.57855H68.1049ZM71.0603 16.1424H68.1448V5.37989H71.0603V16.1424Z" fill="black"/>
<path d="M82.7592 9.6098V16.1423H79.8437V10.028C79.8437 8.54026 79.0949 7.70392 77.7411 7.70392C76.2834 7.70392 75.388 8.93966 75.388 10.4059V16.1423H72.4752V5.37987H75.3054V6.38508H75.7211C76.2008 5.67205 77.2188 5.10913 78.6152 5.10913C81.3841 5.10913 82.7565 6.95068 82.7565 9.6098H82.7592Z" fill="black"/>
<path d="M87.6946 7.82993V16.1424H84.7819V7.82993H82.9697V5.37989H84.7819V4.56232C84.7819 1.84155 86.3835 0.919434 88.8406 0.919434H90.6314V3.36947H89.0084C88.0304 3.36947 87.6973 3.97528 87.6973 4.7312V5.37989H90.4662V7.82993H87.6973H87.6946Z" fill="black"/>
<path d="M101.475 10.7624C101.475 14.1346 99.3297 16.4158 95.9372 16.4158C92.5448 16.4158 90.3995 14.1346 90.3995 10.7624C90.3995 7.39029 92.5635 5.10913 95.9372 5.10913C99.311 5.10913 101.475 7.39029 101.475 10.7624ZM98.5595 10.7624C98.5595 9.0442 97.7681 7.55917 95.9372 7.55917C94.1064 7.55917 93.315 9.04688 93.315 10.7624C93.315 12.478 94.1278 13.9872 95.9372 13.9872C97.7467 13.9872 98.5595 12.4995 98.5595 10.7624Z" fill="black"/>
</g>
<defs>
<clipPath id="clip0_1315_7081">
<rect width="101.475" height="18" fill="white"/>
</clipPath>
</defs>
</svg>