<svg width="112" height="18" viewBox="0 0 112 18" fill="none" xmlns="http://www.w3.org/2000/svg">
<path d="M17.8851 0.00390625H0V18H17.8851V0.00390625Z" fill="black"/>
<path d="M10.8345 4.00659H13.9178V12.1748L11.9557 13.9972H5.9401L3.97803 12.1639V4.00659H7.06129V11.1768L7.48173 11.5999H10.4141L10.8345 11.1768V4.00659Z" fill="white"/>
<path d="M36.2733 17.9961V0L18.3882 0L18.3882 17.9961L36.2733 17.9961Z" fill="black"/>
<path d="M25.7875 13.9972V6.4039H22.3593V4.00659H32.299V6.4039H28.8708V13.9972H25.7875Z" fill="white"/>
<path d="M54.658 0.00390625H36.7729V18H54.658V0.00390625Z" fill="black"/>
<path d="M43.8233 11.2638V13.9974H40.74V4.00684H48.8578L50.6797 5.69905V9.58247L48.8578 11.2747H43.8233V11.2638ZM47.176 6.40414H43.8233V8.87738H47.176L47.5965 8.45433V6.8272L47.176 6.40414Z" fill="white"/>
<path d="M77.6312 12.1533C77.3617 14.4855 75.4212 16.0584 72.726 16.0584C69.4056 16.0584 67.325 13.813 67.325 10.3852C67.325 6.97905 69.4164 4.71191 72.726 4.71191C75.4212 4.71191 77.2539 6.21972 77.545 8.43262H74.645C74.4186 7.6299 73.8149 7.1743 72.7476 7.1743C70.9365 7.1743 70.2465 8.64957 70.2465 10.3635C70.2465 12.1316 70.958 13.6177 72.7476 13.6177C73.8904 13.6177 74.5803 13.0754 74.7528 12.1425H77.6312V12.1533Z" fill="black"/>
<path d="M81.329 0.513672V15.7762H78.4075V0.513672H81.329Z" fill="black"/>
<path d="M89.2959 14.8542H88.8755C88.2502 15.5919 87.2692 16.0475 85.8677 16.0475C83.3881 16.0475 81.9651 14.4312 81.9651 12.4569C81.9651 10.7539 83.151 8.86638 86.3312 8.86638H89.1881V8.59519C89.1881 7.4779 88.5628 6.91383 87.2907 6.91383C86.1264 6.91383 85.555 7.35857 85.4796 8.06366H82.5796C82.6658 6.00263 84.5201 4.70093 87.1506 4.70093C90.0506 4.70093 92.0126 5.85077 92.0126 8.75791V15.7763H89.2959V14.8542ZM89.1881 11.4589V10.8298H86.8918C85.6413 10.8298 84.8866 11.2962 84.8866 12.24C84.8866 13.2271 85.5982 13.7261 86.784 13.7261C88.1963 13.7261 89.1881 12.7823 89.1881 11.4589Z" fill="black"/>
<path d="M102.297 12.5438C102.297 14.3445 100.713 16.0476 97.543 16.0476C94.3088 16.0476 92.7025 14.594 92.4977 12.3703H95.3977C95.5486 13.3574 96.314 13.7805 97.5215 13.7805C98.6642 13.7805 99.3757 13.3791 99.3757 12.6089C99.3757 11.8713 98.8798 11.6001 97.7479 11.4157L95.8289 11.0794C94.1363 10.7865 92.8858 9.90788 92.8858 8.09634C92.8858 6.27396 94.2657 4.71191 97.4352 4.71191C100.109 4.71191 101.758 6.03531 101.985 7.94448H99.0846C98.9553 7.20685 98.233 6.97905 97.3274 6.97905C96.4757 6.97905 95.8073 7.31532 95.8073 7.90109C95.8073 8.42177 96.2493 8.66042 97.101 8.80143L98.7504 9.07262C100.917 9.39805 102.297 10.3852 102.297 12.5438Z" fill="black"/>
<path d="M112 12.5438C112 14.3445 110.415 16.0476 107.246 16.0476C104.011 16.0476 102.405 14.594 102.2 12.3703H105.1C105.251 13.3574 106.017 13.7805 107.224 13.7805C108.367 13.7805 109.078 13.3791 109.078 12.6089C109.078 11.8713 108.582 11.6001 107.45 11.4157L105.532 11.0794C103.839 10.7865 102.588 9.90788 102.588 8.09634C102.588 6.27396 103.968 4.71191 107.138 4.71191C109.811 4.71191 111.461 6.03531 111.687 7.94448H108.787C108.658 7.20685 107.936 6.97905 107.03 6.97905C106.178 6.97905 105.51 7.31532 105.51 7.90109C105.51 8.42177 105.952 8.66042 106.804 8.80143L108.453 9.07262C110.631 9.39805 112 10.3852 112 12.5438Z" fill="black"/>
<path d="M66.786 10.3851C66.786 9.41966 66.9585 8.56271 67.2711 7.80338H63.9291V3.86572H61.2232V7.80338H57.3529V10.5261H61.2232V14.3661H63.9291V10.5261H66.7967C66.7967 10.4827 66.786 10.4393 66.786 10.3851Z" fill="#FF395C"/>
</svg>